<svg xmlns="http://www.w3.org/2000/svg" viewBox="0 0 512 512" width="512" height="512">
  <!-- Circle ring -->
  <circle cx="256" cy="256" r="220" fill="none" stroke="#D4943A" stroke-width="28"/>

  <!-- Sitting cat silhouette - side view facing right -->
  <path d="
    M 210,420
    C 200,420 195,415 195,405
    L 195,370
    L 195,350
    C 195,340 198,330 200,325
    L 200,280
    C 195,260 190,240 190,220
    C 190,195 200,175 215,160
    C 220,155 222,145 220,135
    L 215,105
    C 215,100 218,97 222,100
    L 245,130
    C 250,127 257,125 264,125
    C 271,125 278,127 283,130
    L 306,100
    C 310,97 313,100 313,105
    L 308,135
    C 306,145 308,155 313,160
    C 328,175 338,195 338,220
    C 338,240 335,255 330,270
    L 325,290
    C 320,300 318,310 318,320
    L 318,350
    L 318,405
    C 318,415 313,420 303,420
    L 290,420
    C 285,420 282,417 282,412
    L 282,385
    C 282,380 280,377 275,377
    L 240,377
    C 235,377 232,380 232,385
    L 232,412
    C 232,417 229,420 224,420
    Z
  " fill="#D4943A"/>

  <!-- Tail curving from right side -->
  <path d="
    M 318,350
    C 330,345 345,350 355,360
    C 370,375 375,395 365,405
    C 360,410 352,408 350,402
    C 345,390 338,380 325,375
    C 320,373 318,368 318,363
  " fill="#D4943A"/>

  <!-- Inner ear left -->
  <path d="M 222,108 L 240,130 L 228,140 Z" fill="#B07828" opacity="0.5"/>
  <!-- Inner ear right -->
  <path d="M 306,108 L 288,130 L 300,140 Z" fill="#B07828" opacity="0.5"/>
</svg>
